# xmcd CD database file generated by Grip 3.0.0
# 
# Track frame offsets:
#       150
#       20608
#       38797
#       59439
#       69051
#       88989
#       103374
#       121062
#       131043
#       148922
#       164046
#       187242
#       207316
#       228687
#       247194
#       276218
#       286731
#       301804
# 
# Disc length: 4275 seconds
# 
# Revision: 0
# Processed by: cddbd v1.4PL0 Copyright (c) Steve Scherf et al.
# Submitted via: Grip 3.0.0
# 
DISCID=1d10b112
DTITLE=Moby - 18
DYEAR=2002
DGENRE=Electronic
TTITLE0=We are all made of stars
TTITLE1=In this world
TTITLE2=In my heart
TTITLE3=Great escape
TTITLE4=Signs of love
TTITLE5=One of these mornings
TTITLE6=Another woman
TTITLE7=Fireworks
TTITLE8=Extreme ways
TTITLE9=Jam for the ladies
TTITLE10=The day before my birthday
TTITLE11=18
TTITLE12=Sleep alone
TTITLE13=At least we tried
TTITLE14=Harbour
TTITLE15=Look back in
TTITLE16=The rafters
TTITLE17=I'm not worried at all
EXTD=
EXTT0=
EXTT1=
EXTT2=
EXTT3=
EXTT4=
EXTT5=
EXTT6=
EXTT7=
EXTT8=
EXTT9=
EXTT10=
EXTT11=
EXTT12=
EXTT13=
EXTT14=
EXTT15=
EXTT16=
EXTT17=
PLAYORDER=
